<svg width="20" height="20" viewBox="0 0 20 20" fill="none" xmlns="http://www.w3.org/2000/svg">
<path d="M10 19.9345C4.477 19.9345 0 15.4722 0 9.96726C0 4.46234 4.477 0 10 0C15.523 0 20 4.46234 20 9.96726C20 15.4722 15.523 19.9345 10 19.9345ZM5.013 16.2028C6.42855 17.3308 8.18768 17.9439 10 17.9411C11.97 17.9411 13.773 17.2314 15.167 16.0553C14.5157 15.3892 13.7371 14.8601 12.877 14.4992C12.017 14.1383 11.0931 13.953 10.16 13.9542C9.19259 13.9531 8.2355 14.1524 7.34947 14.5395C6.46343 14.9265 5.66778 15.493 5.013 16.2028ZM3.616 14.7715C4.45645 13.8825 5.47067 13.1744 6.59614 12.691C7.72161 12.2076 8.93448 11.9591 10.16 11.9607C11.3417 11.9592 12.512 12.1903 13.6037 12.6409C14.6955 13.0914 15.6873 13.7525 16.522 14.5861C17.3781 13.3852 17.8836 11.9713 17.9826 10.5014C18.0815 9.03152 17.77 7.56304 17.0825 6.2589C16.395 4.95475 15.3585 3.86593 14.088 3.11322C12.8174 2.36051 11.3625 1.97336 9.8846 1.9947C8.40672 2.01604 6.96366 2.44505 5.71552 3.23413C4.46738 4.02321 3.46296 5.14151 2.81369 6.46497C2.16442 7.78842 1.89569 9.26528 2.03732 10.7317C2.17894 12.1981 2.72537 13.5968 3.616 14.7725V14.7715ZM10 10.964C8.93913 10.964 7.92172 10.5439 7.17157 9.79625C6.42143 9.04856 6 8.03448 6 6.97708C6 5.91969 6.42143 4.90561 7.17157 4.15792C7.92172 3.41023 8.93913 2.99018 10 2.99018C11.0609 2.99018 12.0783 3.41023 12.8284 4.15792C13.5786 4.90561 14 5.91969 14 6.97708C14 8.03448 13.5786 9.04856 12.8284 9.79625C12.0783 10.5439 11.0609 10.964 10 10.964ZM10 8.97054C10.5304 8.97054 11.0391 8.76051 11.4142 8.38667C11.7893 8.01282 12 7.50578 12 6.97708C12 6.44839 11.7893 5.94134 11.4142 5.5675C11.0391 5.19366 10.5304 4.98363 10 4.98363C9.46957 4.98363 8.96086 5.19366 8.58579 5.5675C8.21071 5.94134 8 6.44839 8 6.97708C8 7.50578 8.21071 8.01282 8.58579 8.38667C8.96086 8.76051 9.46957 8.97054 10 8.97054Z" fill="#415859"/>
</svg>
