<svg width="20" height="18" viewBox="0 0 20 18" fill="none" xmlns="http://www.w3.org/2000/svg">
<path d="M0 0.989749C0.00183004 0.727987 0.1069 0.477449 0.292513 0.292258C0.478126 0.107066 0.72938 0.00208779 0.992 0H19.008C19.556 0 20 0.443543 20 0.989749V16.9513C19.9982 17.2131 19.8931 17.4636 19.7075 17.6488C19.5219 17.834 19.2706 17.939 19.008 17.9411H0.992C0.728813 17.9408 0.476497 17.8364 0.290489 17.6508C0.104482 17.4652 -1.33455e-07 17.2136 0 16.9513V0.989749ZM9 1.99345H2V15.9476H9V1.99345ZM11 1.99345V15.9476H18V1.99345H11ZM12 3.98691H17V5.98036H12V3.98691ZM12 6.97708H17V8.97054H12V6.97708Z" fill="#415859"/>
</svg>
