<svg width="20" height="19" viewBox="0 0 20 19" fill="none" xmlns="http://www.w3.org/2000/svg">
<path d="M14.5 0C17.538 0 20 2.49182 20 5.98036C20 12.9574 12.5 16.9443 10 18.4394C7.5 16.9443 0 12.9574 0 5.98036C0 2.49182 2.5 0 5.5 0C7.36 0 9 0.996726 10 1.99345C11 0.996726 12.64 0 14.5 0ZM10.934 15.5529C11.815 14.9987 12.61 14.4475 13.354 13.8575C16.335 11.4952 18 8.91372 18 5.98036C18 3.62808 16.463 1.99345 14.5 1.99345C13.424 1.99345 12.26 2.56159 11.414 3.40282L10 4.81219L8.586 3.40282C7.74 2.56159 6.576 1.99345 5.5 1.99345C3.56 1.99345 2 3.64403 2 5.98036C2 8.91472 3.666 11.4952 6.645 13.8575C7.39 14.4475 8.185 14.9987 9.066 15.5519C9.365 15.7403 9.661 15.9207 10 16.122C10.339 15.9207 10.635 15.7403 10.934 15.5529Z" fill="#415859"/>
</svg>
