<svg width="20" height="21" viewBox="0 0 20 21" fill="none" xmlns="http://www.w3.org/2000/svg">
<path d="M20 19.6385C20 19.9322 19.8829 20.2139 19.6746 20.4216C19.4662 20.6293 19.1836 20.746 18.8889 20.746H1.11111C0.816426 20.746 0.533811 20.6293 0.325437 20.4216C0.117063 20.2139 2.67456e-07 19.9322 2.67456e-07 19.6385V7.99894C-0.000117204 7.83018 0.0384635 7.66362 0.112796 7.51199C0.187128 7.36035 0.295245 7.22766 0.428889 7.12404L9.31778 0.233338C9.51283 0.0821072 9.75289 0 10 0C10.2471 0 10.4872 0.0821072 10.6822 0.233338L19.5711 7.12404C19.7048 7.22766 19.8129 7.36035 19.8872 7.51199C19.9615 7.66362 20.0001 7.83018 20 7.99894V19.6385ZM8.88889 11.8862V18.531H11.1111V11.8862H8.88889Z" fill="#E8625D"/>
</svg>
